name C:\Users\u0150099\Documents\master_thesis\3dpredictsim\Results\debug\Fal_s1_mtj_sc_cspx10_oy_o1x25_MTPm_k1_d01_MTJm_nl_MG_exp_table_d01_PF_Gefen2002_ls146_FDB_ig21.mot
datacolumns 130
datarows 4
range 0.50995811 0.54055559
endheader
time	pelvis_tilt	pelvis_list	pelvis_rotation	pelvis_tx	pelvis_ty	pelvis_tz	hip_flexion_l	hip_adduction_l	hip_rotation_l	hip_flexion_r	hip_adduction_r	hip_rotation_r	knee_angle_l	knee_angle_r	ankle_angle_l	ankle_angle_r	subtalar_angle_l	subtalar_angle_r	mtj_angle_l	mtj_angle_r	mtp_angle_l	mtp_angle_r	lumbar_extension	lumbar_bending	lumbar_rotation	arm_flex_l	arm_add_l	arm_rot_l	arm_flex_r	arm_add_r	arm_rot_r	elbow_flex_l	elbow_flex_r	pro_sup_l	pro_sup_r	glut_med1_l/activation	glut_med2_l/activation	glut_med3_l/activation	glut_min1_l/activation	glut_min2_l/activation	glut_min3_l/activation	semimem_l/activation	semiten_l/activation	bifemlh_l/activation	bifemsh_l/activation	sar_l/activation	add_long_l/activation	add_brev_l/activation	add_mag1_l/activation	add_mag2_l/activation	add_mag3_l/activation	tfl_l/activation	pect_l/activation	grac_l/activation	glut_max1_l/activation	glut_max2_l/activation	glut_max3_l/activation	iliacus_l/activation	psoas_l/activation	quad_fem_l/activation	gem_l/activation	peri_l/activation	rect_fem_l/activation	vas_med_l/activation	vas_int_l/activation	vas_lat_l/activation	med_gas_l/activation	lat_gas_l/activation	soleus_l/activation	tib_post_l/activation	flex_dig_l/activation	flex_hal_l/activation	tib_ant_l/activation	per_brev_l/activation	per_long_l/activation	per_tert_l/activation	ext_dig_l/activation	ext_hal_l/activation	FDB_l/activation	ercspn_l/activation	intobl_l/activation	extobl_l/activation	glut_med1_r/activation	glut_med2_r/activation	glut_med3_r/activation	glut_min1_r/activation	glut_min2_r/activation	glut_min3_r/activation	semimem_r/activation	semiten_r/activation	bifemlh_r/activation	bifemsh_r/activation	sar_r/activation	add_long_r/activation	add_brev_r/activation	add_mag1_r/activation	add_mag2_r/activation	add_mag3_r/activation	tfl_r/activation	pect_r/activation	grac_r/activation	glut_max1_r/activation	glut_max2_r/activation	glut_max3_r/activation	iliacus_r/activation	psoas_r/activation	quad_fem_r/activation	gem_r/activation	peri_r/activation	rect_fem_r/activation	vas_med_r/activation	vas_int_r/activation	vas_lat_r/activation	med_gas_r/activation	lat_gas_r/activation	soleus_r/activation	tib_post_r/activation	flex_dig_r/activation	flex_hal_r/activation	tib_ant_r/activation	per_brev_r/activation	per_long_r/activation	per_tert_r/activation	ext_dig_r/activation	ext_hal_r/activation	FDB_r/activation	ercspn_r/activation	intobl_r/activation	extobl_r/activation	
          0.50995811	         -2.93013440	          1.02282317	         -3.39730297	          0.67824428	          0.90904868	          0.00547644	         28.63533586	          3.02917529	         -2.96531074	        -15.09502083	          3.20385872	          4.63403062	        -15.62670586	        -14.01064786	          7.65985327	         -3.21629664	         -5.74185376	         -9.33927442	         -1.52503490	          2.07562865	         10.15209278	         29.51434486	         -3.10452595	         -0.48363153	          1.06016410	         -4.46503008	        -13.45249273	          6.99668024	          3.43113733	        -13.77573189	         19.38382504	         24.18514729	         31.69632536	         86.51662706	         86.51662706	          0.06844194	          0.05000057	          0.05849924	          0.05000036	          0.05000052	          0.05000724	          0.34447204	          0.18117567	          0.39825925	          0.12359558	          0.05884649	          0.08718707	          0.11134424	          0.09106601	          0.11905943	          0.20568801	          0.05000820	          0.07032508	          0.22335139	          0.05849837	          0.05850001	          0.20929914	          0.05927774	          0.06742422	          0.14933873	          0.05000508	          0.05000177	          0.05000009	          0.05000016	          0.05000015	          0.05000013	          0.05849932	          0.05849937	          0.05000124	          0.17251998	          0.07451781	          0.06315658	          0.40177094	          0.35005386	          0.32161453	          0.23166884	          0.34765073	          0.05000018	          0.10873530	          0.05849939	          0.08981457	          0.09369098	          0.25776520	          0.05000091	          0.05000030	          0.41420637	          0.10866742	          0.05000078	          0.05000168	          0.05000039	          0.05000043	          0.05000041	          0.07006364	          0.08836004	          0.05000042	          0.05000154	          0.05000502	          0.05000312	          0.40704401	          0.05000357	          0.05000071	          0.05001353	          0.05000629	          0.05000417	          0.50675308	          0.84593865	          0.05000046	          0.05000082	          0.05000020	          0.46592473	          0.21588743	          0.21574932	          0.18183974	          0.30662482	          0.45898168	          0.16671553	          0.60579155	          0.29877746	          0.53270197	          0.05000001	          0.15523660	          0.50049191	          0.05000032	          0.05000008	          0.05000076	          0.91953270	          0.05000006	          0.05000004	          0.05000014	
          0.52015727	         -2.92946486	          1.10792839	         -3.63634849	          0.69421131	          0.90737987	          0.00517898	         28.62823446	          3.37545391	         -2.91768646	        -15.51551913	          2.89113981	          4.43382199	        -16.54065631	        -14.81897781	          7.10014941	         -3.92019213	         -5.99918625	         -8.67300558	         -1.33770506	          1.11668251	          9.49163178	         32.03560324	         -2.96021879	         -0.65797697	          1.17040137	         -5.10699776	        -13.45010148	          6.59488149	          3.20394328	        -13.72702747	         19.33636563	         23.61830244	         32.59599086	         86.51662706	         86.51662706	          0.05849927	          0.05849908	          0.05000029	          0.05849950	          0.05849940	          0.05061570	          0.29442409	          0.15485291	          0.34039664	          0.10563856	          0.05029732	          0.16494910	          0.23795370	          0.07783592	          0.13508772	          0.21545336	          0.05000047	          0.06142292	          0.19090173	          0.05000048	          0.05000100	          0.25959389	          0.08009032	          0.08007904	          0.43869831	          0.17563088	          0.08008190	          0.05000011	          0.05000019	          0.05000017	          0.05000012	          0.05000007	          0.05000021	          0.05000001	          0.14745504	          0.08720346	          0.05850065	          0.43340031	          0.29919525	          0.27488882	          0.23248212	          0.39495953	          0.05850130	          0.09293736	          0.05000011	          0.07676552	          0.08007875	          0.22031696	          0.05000027	          0.05000011	          0.35402751	          0.09287965	          0.05000169	          0.05000701	          0.05000053	          0.05000041	          0.05000123	          0.05988531	          0.16137171	          0.06695249	          0.05000206	          0.05000688	          0.05000281	          0.44401319	          0.08005973	          0.05000112	          0.05000187	          0.05000127	          0.05000154	          0.43312755	          0.72956806	          0.05000013	          0.05000060	          0.05000120	          0.45203003	          0.20122987	          0.20098340	          0.16925874	          0.26207566	          0.39229685	          0.14489838	          0.52641884	          0.25536897	          0.45530775	          0.05000002	          0.13268246	          0.42777601	          0.05000016	          0.05000004	          0.05000073	          0.78593506	          0.05000007	          0.05607536	          0.08007775	
          0.53035643	         -2.92531499	          1.20118247	         -3.85669288	          0.71046305	          0.90567533	          0.00484438	         28.60144337	          3.68680897	         -2.86342518	        -15.83956607	          2.56655104	          4.22101540	        -18.04236928	        -15.79335447	          6.40284867	         -4.49489990	         -6.29748320	         -7.91470022	         -1.12690399	         -0.23820347	          8.81741076	         34.89363783	         -2.79941320	         -0.83952963	          1.27404499	         -5.77043363	        -13.46254866	          6.34498471	          2.89678470	        -13.68870433	         19.24444453	         23.05507938	         33.54534204	         86.51662706	         86.51662706	          0.05000005	          0.05000013	          0.10710207	          0.05000025	          0.05000022	          0.05000023	          0.25164754	          0.13235454	          0.29094079	          0.09029049	          0.08007551	          0.14098440	          0.20338377	          0.35277696	          0.25022907	          0.25964682	          0.05000468	          0.06869586	          0.16316616	          0.05007292	          0.13831215	          0.30118190	          0.06845442	          0.06844497	          0.55046734	          0.15011388	          0.06844716	          0.06844340	          0.05000189	          0.05000189	          0.10691084	          0.07088211	          0.07671293	          0.07377123	          0.12603147	          0.07453401	          0.05000126	          0.53044496	          0.52664787	          0.25723083	          0.19870595	          0.33757638	          0.05000172	          0.07943460	          0.05000002	          0.06561236	          0.06844421	          0.18830751	          0.05003717	          0.05849911	          0.30259146	          0.07938556	          0.05000800	          0.05011239	          0.05000872	          0.05004494	          0.05000098	          0.05118563	          0.27828678	          0.24198245	          0.05850082	          0.05849974	          0.09232460	          0.37950663	          0.06843559	          0.05849912	          0.05841761	          0.05849323	          0.05849803	          0.37019897	          0.64907504	          0.05849924	          0.05849892	          0.05000113	          0.40108692	          0.17575105	          0.18877495	          0.17555586	          0.22399899	          0.33530053	          0.12384626	          0.44993604	          0.21826678	          0.38915673	          0.10518970	          0.11340520	          0.36562494	          0.05000014	          0.05000086	          0.06844446	          0.67174748	          0.05976228	          0.06447066	          0.06844344	
          0.54055559	         -2.91811907	          1.31211148	         -4.05938504	          0.72692051	          0.90399895	          0.00451405	         28.48014879	          3.91755542	         -2.74979127	        -16.05116055	          2.22567214	          3.99519013	        -19.66671036	        -16.94109811	          5.87608158	         -4.96366070	         -6.66993544	         -7.08664601	         -1.09571822	         -1.98703936	          8.24211938	         38.02544225	         -2.62617217	         -1.04044867	          1.37087775	         -6.43846054	        -13.49367789	          6.23777542	          2.52232587	        -13.65574277	         19.12977008	         22.48347157	         34.53938816	         86.51662706	         86.51662706	          0.41974079	          0.40536264	          0.40495283	          0.43450488	          0.43450333	          0.39996409	          0.21508595	          0.11312521	          0.24867033	          0.07717232	          0.06844157	          0.12050116	          0.21659086	          0.30152276	          0.24246522	          0.30919544	          0.05000143	          0.05871956	          0.13946058	          0.26117371	          0.27285482	          0.38152391	          0.05850883	          0.05850073	          0.47049059	          0.12830417	          0.11512091	          0.05849937	          0.05001997	          0.07146305	          0.09137836	          0.06058374	          0.06556741	          0.06305309	          0.25068802	          0.09370447	          0.05000049	          0.58133900	          0.45013181	          0.28564003	          0.52302252	          0.42761767	          0.05338843	          0.14633578	          0.08285930	          0.08846207	          0.05850004	          0.22357408	          0.05000009	          0.05000004	          0.38302830	          0.06785235	          0.05000021	          0.05000546	          0.05000043	          0.05000021	          0.05000162	          0.05849628	          0.29758232	          0.20682550	          0.05000179	          0.05000319	          0.07891153	          0.43510160	          0.05850107	          0.05000080	          0.05000113	          0.05000067	          0.05000076	          0.31641326	          0.71615231	          0.05000009	          0.05000019	          0.05000007	          0.34281355	          0.15021653	          0.16134817	          0.15004965	          0.19145443	          0.28658512	          0.10585278	          0.38456533	          0.18655508	          0.33261665	          0.19505185	          0.22378115	          0.31250374	          0.12791566	          0.20220523	          0.05850043	          0.57415004	          0.09921647	          0.05510380	          0.05849939	
